<svg id="Layer_1" data-name="Layer 1" xmlns="http://www.w3.org/2000/svg" xmlns:xlink="http://www.w3.org/1999/xlink" viewBox="0 0 128 128"><defs><style>.cls-1{fill:url(#linear-gradient);}.cls-2{fill:url(#linear-gradient-2);}</style><linearGradient id="linear-gradient" x1="-5071.31" y1="853.3" x2="-5011.2" y2="853.3" gradientTransform="matrix(-1, 0, 0, 1, -4982.86, -772.93)" gradientUnits="userSpaceOnUse"><stop offset="0" stop-color="#01cbe0"/><stop offset="0.45" stop-color="#48a3fd"/><stop offset="1" stop-color="#4477cf"/></linearGradient><linearGradient id="linear-gradient-2" x1="60.22" y1="856.38" x2="60.22" y2="761.41" gradientTransform="translate(0 -772.93)" xlink:href="#linear-gradient"/></defs><title>Melalie-logo-128x128</title><g id="Layer_2" data-name="Layer 2"><g id="Layer_1-2" data-name="Layer 1-2"><path class="cls-1" d="M29.68,61.4C38.45,85.55,62,114.6,62,114.6a102.44,102.44,0,0,0,8.29-10c14.53-19.67,17.37-29.23,18.16-32.2-2.18.18-20,5.39-22.21,5.39-27.6,0-34.92-16.22-34.92-31.17v-.42C28.41,49.84,27.2,54.74,29.68,61.4Z"/><path class="cls-2" d="M58.55,43H81.49c-.12-.67-.18-1.39-.36-2.06v-.06a21.73,21.73,0,0,0-6-11.5,18,18,0,0,0-11-5,18.74,18.74,0,0,0-2.6-.12,23.7,23.7,0,0,0-10.89,2.36,17.34,17.34,0,0,0-4.18,2.78,21.75,21.75,0,0,0-6.36,9.81,26.9,26.9,0,0,0-1.63,9.26c0,13.44,9.81,24.39,21.85,24.39h.3c.91.06,1.88.12,2.84.12a23.51,23.51,0,0,0,7.93-1.39,23.9,23.9,0,0,0,6.78-3.45,6.23,6.23,0,0,1,4.18-1.39,5.5,5.5,0,0,1,3.81,1.27,5.62,5.62,0,0,1,2.3,4.3,4.73,4.73,0,0,1-2,3.81A34.13,34.13,0,0,1,75.8,81.73a38.79,38.79,0,0,1-30.93-2.3A32.49,32.49,0,0,1,32,66.91a35.56,35.56,0,0,1-4.66-18.16,37.7,37.7,0,0,1,4.36-18.22A31.62,31.62,0,0,1,43.84,17.94,34.62,34.62,0,0,1,61.51,13.4,32.12,32.12,0,0,1,78.4,17.7a28.67,28.67,0,0,1,10.89,12,39.67,39.67,0,0,1,3.81,17.79,5.21,5.21,0,0,1-1.63,4,5.74,5.74,0,0,1-4.18,1.57H58.55A5.11,5.11,0,0,1,53.46,48,5.06,5.06,0,0,1,58.55,43Z"/></g></g></svg>